<?xml version="1.0" encoding="UTF-8"?>
<svg width="38px" height="42px" viewBox="0 0 38 42" version="1.1" xmlns="http://www.w3.org/2000/svg" xmlns:xlink="http://www.w3.org/1999/xlink">
    <title>Untitled 5</title>
    <g id="Page-1" stroke="none" stroke-width="1" fill="none" fill-rule="evenodd">
        <g id="contacts" fill-rule="nonzero">
            <g id="Group">
                <g opacity="0.2" transform="translate(34.000000, 7.000000)" fill="#231F20" id="Path">
                    <path d="M2,7 C0.895,7 0,6.105 0,5 L0,2 C0,0.895 0.895,0 2,0 L2,0 C3.105,0 4,0.895 4,2 L4,5 C4,6.105 3.105,7 2,7 L2,7 Z"></path>
                </g>
                <g opacity="0.2" transform="translate(34.000000, 16.000000)" fill="#231F20" id="Path">
                    <path d="M2,7 C0.895,7 0,6.105 0,5 L0,2 C0,0.895 0.895,0 2,0 L2,0 C3.105,0 4,0.895 4,2 L4,5 C4,6.105 3.105,7 2,7 L2,7 Z"></path>
                </g>
                <g opacity="0.2" transform="translate(34.000000, 25.000000)" fill="#231F20" id="Path">
                    <path d="M2,7 C0.895,7 0,6.105 0,5 L0,2 C0,0.895 0.895,0 2,0 L2,0 C3.105,0 4,0.895 4,2 L4,5 C4,6.105 3.105,7 2,7 L2,7 Z"></path>
                </g>
                <path d="M36,12 C34.895,12 34,11.105 34,10 L34,7 C34,5.895 34.895,5 36,5 L36,5 C37.105,5 38,5.895 38,7 L38,10 C38,11.105 37.105,12 36,12 L36,12 Z" id="Path" fill="#77B3D4"></path>
                <path d="M36,21 C34.895,21 34,20.105 34,19 L34,16 C34,14.895 34.895,14 36,14 L36,14 C37.105,14 38,14.895 38,16 L38,19 C38,20.105 37.105,21 36,21 L36,21 Z" id="Path" fill="#FFFFFF"></path>
                <path d="M36,30 C34.895,30 34,29.105 34,28 L34,25 C34,23.895 34.895,23 36,23 L36,23 C37.105,23 38,23.895 38,25 L38,28 C38,29.105 37.105,30 36,30 L36,30 Z" id="Path" fill="#76C2AF"></path>
                <g opacity="0.2" transform="translate(4.000000, 2.000000)" fill="#231F20" id="Path">
                    <path d="M32,36 C32,38.209 30.209,40 28,40 L4,40 C1.791,40 0,38.209 0,36 L0,4 C0,1.791 1.791,0 4,0 L28,0 C30.209,0 32,1.791 32,4 L32,36 Z"></path>
                </g>
                <path d="M35,36 C35,38.209 33.209,40 31,40 L7,40 C4.791,40 3,38.209 3,36 L3,4 C3,1.791 4.791,0 7,0 L31,0 C33.209,0 35,1.791 35,4 L35,36 Z" id="Path" fill="#E0995E"></path>
                <rect id="Rectangle" fill="#4F5D73" x="9" y="0" width="3" height="40"></rect>
                <g opacity="0.2" transform="translate(0.000000, 8.000000)" fill="#231F20" id="Path">
                    <g>
                        <path d="M7,2 C7,3.105 6.105,4 5,4 L2,4 C0.895,4 0,3.105 0,2 L0,2 C0,0.895 0.895,0 2,0 L5,0 C6.105,0 7,0.895 7,2 L7,2 Z"></path>
                    </g>
                    <g transform="translate(0.000000, 8.000000)">
                        <path d="M7,2 C7,3.105 6.105,4 5,4 L2,4 C0.895,4 0,3.105 0,2 L0,2 C0,0.895 0.895,0 2,0 L5,0 C6.105,0 7,0.895 7,2 L7,2 Z"></path>
                    </g>
                    <g transform="translate(0.000000, 16.000000)">
                        <path d="M7,2 C7,3.105 6.105,4 5,4 L2,4 C0.895,4 0,3.105 0,2 L0,2 C0,0.895 0.895,0 2,0 L5,0 C6.105,0 7,0.895 7,2 L7,2 Z"></path>
                    </g>
                    <g transform="translate(0.000000, 24.000000)">
                        <path d="M7,2 C7,3.105 6.105,4 5,4 L2,4 C0.895,4 0,3.105 0,2 L0,2 C0,0.895 0.895,0 2,0 L5,0 C6.105,0 7,0.895 7,2 L7,2 Z"></path>
                    </g>
                </g>
                <g transform="translate(0.000000, 6.000000)" fill="#E0E0D1" id="Path">
                    <path d="M7,2 C7,3.105 6.105,4 5,4 L2,4 C0.895,4 0,3.105 0,2 L0,2 C0,0.895 0.895,0 2,0 L5,0 C6.105,0 7,0.895 7,2 L7,2 Z"></path>
                    <path d="M7,10 C7,11.105 6.105,12 5,12 L2,12 C0.895,12 0,11.105 0,10 L0,10 C0,8.895 0.895,8 2,8 L5,8 C6.105,8 7,8.895 7,10 L7,10 Z"></path>
                    <path d="M7,18 C7,19.105 6.105,20 5,20 L2,20 C0.895,20 0,19.105 0,18 L0,18 C0,16.895 0.895,16 2,16 L5,16 C6.105,16 7,16.895 7,18 L7,18 Z"></path>
                    <path d="M7,26 C7,27.105 6.105,28 5,28 L2,28 C0.895,28 0,27.105 0,26 L0,26 C0,24.895 0.895,24 2,24 L5,24 C6.105,24 7,24.895 7,26 L7,26 Z"></path>
                </g>
                <circle id="Oval" fill="#F5CF87" cx="23" cy="15" r="4"></circle>
                <path d="M29,27.26 C29,30.27 26.314,29.985 23,29.985 C19.686,29.985 17,30.27 17,27.26 C17,24.25 19.686,19.993 23,19.993 C26.314,19.993 29,24.249 29,27.26 Z" id="Path" fill="#F5CF87"></path>
            </g>
        </g>
    </g>
</svg>