<svg height="512pt" viewBox="-21 0 512 512.00136" width="512pt" xmlns="http://www.w3.org/2000/svg"><g fill="#bfa885"><path d="m139.746094 150.785156c-6.757813 1.019532-13.628906 1.050782-20.394532.085938 6.765626-.925782 13.621094-.953125 20.394532-.085938zm0 0"/><path d="m187.363281 153.429688c6.960938 2.808593 14.289063 4.617187 21.757813 5.378906-14.644532 1.769531-29.496094-.078125-43.261719-5.378906-1.792969-.765626-3.671875-1.535157-5.464844-2.472657 4.351563-.472656 8.074219-3.339843 9.644531-7.425781 2 1.527344 4.082032 2.953125 6.230469 4.265625 3.535157 2.183594 7.246094 4.066406 11.09375 5.632813zm0 0"/><path d="m375.179688 259.328125c0 5.207031-.171876 9.898437-.425782 14.25-.257812 4.355469-.683594 8.535156-1.195312 12.203125-.339844 1.792969-.597656 3.585938-.9375 5.207031-.839844 4.820313-2.1875 9.539063-4.011719 14.078125-.425781 1.109375-.9375 2.136719-1.363281 3.074219-.40625.90625-.859375 1.789063-1.367188 2.644531-.433594.855469-.917968 1.679688-1.449218 2.476563-4.410157 5.832031-9.542969 11.078125-15.277344 15.613281-.496094.414062-.953125.871094-1.363282 1.367188-.34375.339843-.597656.683593-.9375 1.023437-4.113281 5.292969-6.121093 11.917969-5.632812 18.601563 0 35.839843 25.941406 42.667968-17.066406 42.667968h-21.503906c43.007812 0 17.066406-6.828125 17.066406-42.667968-.488282-6.683594 1.519531-13.308594 5.628906-18.601563.34375-.339844.597656-.683594.941406-1.023437.410156-.496094.867188-.953126 1.363282-1.367188 5.734374-4.535156 10.867187-9.78125 15.277343-15.613281.53125-.796875 1.015625-1.621094 1.449219-2.476563.503906-.855468.960938-1.738281 1.367188-2.644531.425781-.9375.9375-1.964844 1.363281-3.074219 1.824219-4.539062 3.171875-9.257812 4.011719-14.078125.339843-1.621093.597656-3.414062.9375-5.207031.511718-3.667969.9375-7.765625 1.195312-12.203125.253906-4.433594.425781-9.042969.425781-14.25 0-62.546875-37.375-102.996094-82.515625-108.542969 54.183594-6.484375 104.019532 36.351563 104.019532 108.542969zm0 0"/></g><path d="m353.675781 259.328125c0 5.207031-.171875 9.898437-.425781 14.25-.257812 4.355469-.683594 8.535156-1.195312 12.203125-.339844 1.792969-.597657 3.585938-.9375 5.207031-.839844 4.820313-2.1875 9.539063-4.011719 14.078125-.425781 1.109375-.9375 2.136719-1.363281 3.074219-.40625.90625-.863282 1.789063-1.367188 2.644531-.433594.855469-.917969 1.679688-1.449219 2.476563-4.410156 5.832031-9.542969 11.078125-15.277343 15.613281-.496094.414062-.953126.871094-1.363282 1.367188-.34375.339843-.597656.683593-.941406 1.023437-4.109375 5.292969-6.117188 11.917969-5.628906 18.601563 0 35.839843 25.941406 42.667968-17.066406 42.667968h-166.230469c-25.601563 0-14.761719-26.964844 42.667969-34.132812 46.335937-5.804688 62.378906-7.765625 66.730468-8.363282-10.667968.425782-75.265625 1.28125-75.265625-51.371093-.039062-4.664063.535157-9.308594 1.707031-13.824219-6.0625 11.109375-12.726562 21.875-19.96875 32.257812-30.207031 42.75-53.503906 50.089844-57.855468 68.777344-1.054688 4.011719-4.730469 6.769532-8.875 6.65625h-60.074219c-25.601563 0-8.535156-34.132812 17.066406-34.132812 21.503907 0 35.5-4.097656 42.667969-25.601563 3.726562-12.976562 6.128906-26.300781 7.167969-39.765625 1.171875-12.476562-1.667969-25.003906-8.109375-35.753906l-2.21875-3.753906c-6.378906-10.496094-9.25-22.75-8.191406-34.988282.210937-2.789062.640624-5.554687 1.28125-8.277343.425781-1.875.9375-3.667969 1.535156-5.460938l1.878906-3.753906c18.515625-1.960937 18.175781-40.105469 32.253906-47.445313 2.683594-1.355468 5.5625-2.273437 8.535156-2.730468 6.765626.964844 13.636719.933594 20.394532-.085938 6.847656.949219 13.789062 1.007813 20.648437.171875 1.792969.9375 3.671875 1.707031 5.464844 2.472657 13.765625 5.300781 28.617187 7.148437 43.261719 5.378906 15.761718 1.414062 31.648437-.265625 46.761718-4.953125 4.984376-1.503907 10.097657-2.53125 15.277344-3.070313 45.140625 5.546875 82.515625 45.996094 82.515625 108.542969zm0 0" fill="#ffecb3"/><path d="m154.765625 147.796875c1.875 1.109375 3.753906 2.21875 5.628906 3.160156-6.859375.835938-13.800781.777344-20.648437-.171875 4-.707031 7.335937-3.460937 8.789062-7.253906 2 1.527344 4.082032 2.953125 6.230469 4.265625zm0 0" fill="#bfa885"/><path d="m271.160156 150.785156c-5.179687.539063-10.292968 1.566406-15.277344 3.070313-15.113281 4.6875-31 6.367187-46.761718 4.953125 8.558594-.835938 17.019531-2.492188 25.257812-4.953125 11.929688-3.492188 24.4375-4.535157 36.78125-3.070313zm0 0" fill="#bfa885"/><path d="m279.265625 26.285156c-.285156-.011718-.574219.019532-.851563.085938-1.195312.167968-2.476562 16.125-3.757812 16.296875-.835938.066406-1.664062.207031-2.472656.425781-1.535156.171875-3.074219-.765625-4.609375-.425781-4.09375.769531-8.363281 3.070312-12.714844 4.351562-1.195313.34375-2.386719.683594-3.667969 1.109375-2.046875.597656-4.183594 1.28125-6.316406 2.046875-2.386719.769531-4.777344 1.621094-7.253906 2.648438-3.242188 1.191406-6.570313 2.558593-9.898438 4.007812-11.726562 5.089844-22.953125 11.257813-33.535156 18.433594-5.839844 3.945313-11.324219 8.402344-16.382812 13.3125-4.117188 3.75-7.65625 8.09375-10.496094 12.882813-1.121094 1.832031-2.035156 3.777343-2.730469 5.804687-5.015625-6.78125-11.566406-12.28125-19.113281-16.042969-3.074219-1.621094-14.167969-13.398437-17.582032-14.421875-1.707031-.511719 4.4375-6.230469 2.648438-6.65625 7.59375-14.675781 30.804688-32.851562 61.269531-46.164062 41.386719-18.175781 80.296875-20.652344 86.953125-5.546875.996094 2.496094 1.171875 5.246094.511719 7.851562zm0 0" fill="#795548"/><path d="m251.703125 95.746094c-29.355469 12.882812-57.515625 17.832031-73.726563 14.164062-1.871093-.402344-3.699218-.972656-5.460937-1.707031-.453125-1.769531-1.023437-3.507813-1.707031-5.203125-.601563-1.765625-1.34375-3.476562-2.21875-5.121094-1.171875-2.160156-2.480469-4.242187-3.925782-6.230468v-.085938c.660157-2.050781 1.546876-4.027344 2.644532-5.886719 2.839844-4.792969 6.378906-9.132812 10.496094-12.886719 5.058593-4.910156 10.542968-9.363281 16.382812-13.308593 10.582031-7.175781 21.808594-13.347657 33.535156-18.433594 3.328125-1.449219 6.65625-2.816406 9.898438-4.011719 2.476562-1.023437 4.867187-1.875 7.253906-2.644531 2.132812-.769531 4.269531-1.449219 6.316406-2.046875 1.28125-.425781 2.472656-.769531 3.667969-1.109375 4.183594-1.238281 8.429687-2.261719 12.714844-3.074219 1.519531-.367187 3.058593-.652344 4.609375-.851562.808594-.21875 1.636718-.363282 2.472656-.425782.429688-.085937.941406-.085937 1.367188-.171874.851562-.085938 1.621093-.257813 2.390624-.339844.277344-.066406.566407-.097656.851563-.085938 18.347656-2.050781 31.742187.9375 35.414063 9.214844 6.570312 15.105469-21.589844 42.070312-62.976563 60.246094zm0 0" fill="#ad1457"/><path d="m226.101562 95.574219c-15.328124 6.90625-31.515624 11.726562-48.125 14.335937-1.871093-.402344-3.699218-.972656-5.460937-1.707031-.453125-1.769531-1.023437-3.507813-1.707031-5.203125-.601563-1.765625-1.34375-3.476562-2.21875-5.121094-1.171875-2.160156-2.480469-4.242187-3.925782-6.230468v-.085938c.660157-2.050781 1.546876-4.027344 2.644532-5.886719 2.839844-4.792969 6.378906-9.132812 10.496094-12.886719 5.058593-4.910156 10.542968-9.363281 16.382812-13.308593 10.582031-7.175781 21.808594-13.347657 33.535156-18.433594 3.328125-1.449219 6.65625-2.816406 9.898438-4.011719 2.476562-1.023437 4.867187-1.875 7.253906-2.644531 2.132812-.769531 4.269531-1.449219 6.316406-2.046875 1.28125-.425781 2.472656-.769531 3.667969-1.109375 4.183594-1.238281 8.429687-2.261719 12.714844-3.074219 1.519531-.367187 3.058593-.652344 4.609375-.851562.808594-.21875 1.636718-.363282 2.472656-.425782.429688-.085937.941406-.085937 1.367188-.171874 5.476562.621093 10.328124 3.824218 13.054687 8.617187 6.570313 15.105469-21.589844 42.070313-62.976563 60.246094zm0 0" fill="#e91e63"/><path d="m172.515625 108.203125c-.453125-1.769531-1.023437-3.507813-1.707031-5.203125-.183594-.65625-.441406-1.285156-.769532-1.878906-.425781-1.109375-.9375-2.21875-1.449218-3.242188-1.171875-2.160156-2.480469-4.242187-3.925782-6.230468-.046874 0-.085937-.039063-.085937-.085938v-.082031c-5.015625-6.785157-11.566406-12.28125-19.113281-16.042969-3.132813-1.574219-6.386719-2.886719-9.730469-3.925781-1.707031-.511719-3.414063-.941407-5.203125-1.367188-9.019531-2.003906-18.328125-2.378906-27.480469-1.109375-10.277343 1.414063-20.238281 4.589844-29.4375 9.386719-36.949219 19.199219-75.777343 79.871094-62.550781 105.300781.875 1.648438 1.964844 3.167969 3.242188 4.523438 10.179687 8.679687 23.144531 13.40625 36.523437 13.3125 9.242187.675781 18.523437.503906 27.734375-.511719 17.816406-1.667969 35.1875-6.523437 51.285156-14.335937 18.183594-9.050782 32.46875-24.390626 40.191406-43.179688 4.574219-11.210938 5.441407-23.589844 2.476563-35.328125zm0 0" fill="#bfa885"/><path d="m151.691406 108.203125c-.453125-1.769531-1.023437-3.507813-1.707031-5.203125-.179687-.65625-.4375-1.285156-.765625-1.878906-.425781-1.109375-.941406-2.21875-1.453125-3.242188-1.167969-2.160156-2.480469-4.242187-3.925781-6.230468-.046875 0-.082032-.039063-.082032-.085938v-.082031c-5.015624-6.785157-11.566406-12.28125-19.117187-16.042969-3.128906-1.574219-6.382813-2.886719-9.726563-3.925781-1.707031-.511719-3.414062-.941407-5.207031-1.367188-2.191406-.507812-4.414062-.878906-6.65625-1.109375-10.277343 1.414063-20.238281 4.589844-29.4375 9.386719-36.949219 19.199219-75.777343 79.871094-62.550781 105.300781.875 1.648438 1.964844 3.167969 3.242188 4.523438 10.179687 8.679687 23.144531 13.40625 36.523437 13.3125 2.277344-.085938 4.578125-.257813 6.914063-.511719 17.8125-1.667969 35.183593-6.523437 51.285156-14.335937 18.183594-9.050782 32.464844-24.390626 40.191406-43.179688 4.574219-11.210938 5.441406-23.589844 2.472656-35.328125zm0 0" fill="#ffecb3"/><path d="m418.019531 311.46875c.011719 10.1875-4.03125 19.960938-11.234375 27.167969-7.203125 7.203125-16.980468 11.246093-27.167968 11.230469-3.820313.003906-7.617188-.574219-11.261719-1.707032-8.976563-2.847656-16.617188-8.847656-21.503907-16.894531.339844-.339844.59375-.683594.9375-1.023437.339844-.34375.851563-.941407 1.363282-1.367188 5.734375-4.535156 10.867187-9.78125 15.277344-15.613281.53125-.796875 1.015624-1.621094 1.449218-2.476563.507813-.855468.960938-1.738281 1.367188-2.644531.425781-.9375.9375-1.964844 1.363281-3.074219 1.824219-4.539062 3.171875-9.257812 4.011719-14.078125.339844-1.621093.597656-3.414062.9375-5.207031.339844-2.644531.683594-5.460938.855468-8.445312.167969-1.195313.253907-2.476563.339844-3.757813 1.605469-.300781 3.230469-.472656 4.863282-.511719 10.1875-.011718 19.964843 4.03125 27.167968 11.234375s11.246094 16.980469 11.234375 27.167969zm0 0" fill="#cfd8dc"/><path d="m395.320312 311.46875c0 16.8125-10.921874 31.671875-26.964843 36.691406-8.976563-2.847656-16.617188-8.847656-21.503907-16.894531.339844-.339844.59375-.683594.9375-1.023437.339844-.34375.851563-.941407 1.363282-1.367188 5.734375-4.535156 10.867187-9.78125 15.277344-15.613281.53125-.796875 1.015624-1.621094 1.449218-2.476563.507813-.855468.960938-1.738281 1.367188-2.644531.425781-.9375.9375-1.964844 1.363281-3.074219 1.824219-4.539062 3.171875-9.257812 4.011719-14.078125.339844-1.621093.597656-3.414062.9375-5.207031.339844-2.644531.683594-5.460938.855468-8.445312 12.859376 6.511718 20.945313 19.71875 20.90625 34.132812zm0 0" fill="#f4f4f4"/><path d="m400.949219 494.933594c-28.273438 0-51.199219-22.921875-51.199219-51.199219s22.925781-51.199219 51.199219-51.199219c28.277343 0 51.203125 22.921875 51.203125 51.199219-.03125 28.265625-22.9375 51.171875-51.203125 51.199219zm0-85.332032c-18.847657 0-34.132813 15.28125-34.132813 34.132813s15.285156 34.132813 34.132813 34.132813c18.851562 0 34.136719-15.28125 34.136719-34.132813s-15.285157-34.132813-34.136719-34.132813zm0 0"/><path d="m460.683594 452.269531h-25.597656c-4.714844 0-8.535157-3.820312-8.535157-8.535156 0-4.710937 3.820313-8.53125 8.535157-8.53125h25.597656c4.714844 0 8.535156 3.820313 8.535156 8.53125 0 4.714844-3.820312 8.535156-8.535156 8.535156zm0 0"/><path d="m366.816406 452.269531h-25.597656c-4.714844 0-8.535156-3.820312-8.535156-8.535156 0-4.710937 3.820312-8.53125 8.535156-8.53125h25.597656c4.714844 0 8.535156 3.820313 8.535156 8.53125 0 4.714844-3.820312 8.535156-8.535156 8.535156zm0 0"/><path d="m400.949219 512c-4.710938 0-8.53125-3.820312-8.53125-8.53125v-25.601562c0-4.710938 3.820312-8.53125 8.53125-8.53125 4.714843 0 8.535156 3.820312 8.535156 8.53125v25.601562c0 4.710938-3.820313 8.53125-8.535156 8.53125zm0 0"/><path d="m400.949219 418.132812c-4.710938 0-8.53125-3.820312-8.53125-8.53125v-25.601562c0-4.710938 3.820312-8.53125 8.53125-8.53125 4.714843 0 8.535156 3.820312 8.535156 8.53125v25.601562c0 4.710938-3.820313 8.53125-8.535156 8.53125zm0 0"/><path d="m409.484375 443.734375c0 4.714844-3.820313 8.535156-8.535156 8.535156-4.710938 0-8.53125-3.820312-8.53125-8.535156 0-4.710937 3.820312-8.53125 8.53125-8.53125 4.714843 0 8.535156 3.820313 8.535156 8.53125zm0 0"/><path d="m61.503906 210.375c-26.164062 0-49.65625-6.625-58.027344-22.71875-15.941406-30.71875 25.847657-95.800781 66.195313-116.769531 41.035156-21.332031 88.804687-10.988281 106.46875 23.042969 17.664063 34.027343-1.324219 79.015624-42.367187 100.339843-22.589844 10.6875-47.28125 16.1875-72.269532 16.105469zm52.667969-133.574219c-12.773437.105469-25.335937 3.273438-36.632813 9.234375-34.050781 17.6875-69.292968 73.769532-58.882812 93.753906 9.6875 18.628907 70.828125 18.253907 107.28125-.664062 32.683594-16.980469 48.417969-51.679688 35.089844-77.347656-9.679688-16.472656-27.78125-26.125-46.855469-24.976563zm0 0"/><path d="m85.585938 401.066406h-60.101563c-5.453125.273438-10.820313-1.40625-15.148437-4.734375-3.921876-3.3125-6.144532-8.21875-6.046876-13.355469 0-14.992187 17.066407-33.109374 38.261719-33.109374 21.710938 0 29.457031-4.4375 34.578125-19.761719 3.546875-12.367188 5.804688-25.066407 6.742188-37.898438 1.039062-10.667969-1.390625-21.386719-6.929688-30.566406l-2.21875-3.710937c-10.109375-16.816407-12.347656-37.214844-6.128906-55.824219l16.214844 5.390625c-4.632813 13.886718-2.960938 29.105468 4.574218 41.652344l2.226563 3.703124c7.417969 12.300782 10.667969 26.664063 9.277344 40.960938-1.023438 14.117188-3.550781 28.085938-7.535157 41.667969-9.710937 29.023437-31.308593 31.453125-50.800781 31.453125-7.429687.238281-14.324219 3.917968-18.652343 9.960937-1.574219 1.804688-2.460938 4.105469-2.5 6.5 1.292968.527344 2.695312.738281 4.085937.605469h60.101563c3.335937-11.945312 11.742187-19.820312 22.382812-29.8125 23.15625-20.878906 42.390625-45.734375 56.789062-73.386719l14.984376 8.171875c-15.296876 29.226563-35.640626 55.515625-60.09375 77.65625-9.523438 8.941406-15.273438 14.34375-16.851563 21.1875-2.007813 7.851563-9.109375 13.320313-17.210937 13.25zm0 0"/><path d="m324.152344 401.066406h-187.734375c-15.222657 0-21.128907-7.730468-21.574219-14.957031-1.03125-16.519531 24.953125-31.394531 63.148438-36.171875l13.917968-1.707031c-4.820312-2.453125-9.289062-5.539063-13.285156-9.183594-11.132812-10.414063-17.191406-25.148437-16.605469-40.378906-.566406-15.226563 5.503907-29.945313 16.636719-40.34375 24.601562-22.691407 67.59375-19.507813 69.378906-19.363281 4.703125.375 8.214844 4.492187 7.839844 9.199218-.375 4.703125-4.492188 8.214844-9.199219 7.839844-.398437 0-37.425781-2.695312-56.472656 14.925781-7.589844 7.175781-11.652344 17.3125-11.117187 27.742188-.550782 10.433593 3.503906 20.582031 11.089843 27.765625 19.046875 17.625 56.074219 14.953125 56.476563 14.925781 4.597656-.316406 8.617187 3.074219 9.078125 7.660156.460937 4.585938-2.804688 8.710938-7.371094 9.3125l-68.269531 8.535157c-29.320313 3.667968-43.238282 12.3125-47.164063 16.871093 1.15625.1875 2.324219.273438 3.492188.261719h187.734375c5.160156.097656 10.324218-.109375 15.460937-.628906-.28125-.855469-.597656-1.707032-.851562-2.492188-3.921875-9.875-5.980469-20.386718-6.078125-31.011718-.761719-12.328126 4.953125-24.164063 15.078125-31.238282 8.839843-7.535156 18.867187-16.078125 18.867187-59.273437 0-36.070313-13.652344-67.019531-37.484375-84.914063-20.324219-15.152344-46.636719-19.742187-70.886719-12.375-37.394531 10.847656-65.894531 7.789063-92.441406-9.898437-3.921875-2.617188-4.980468-7.914063-2.363281-11.835938 2.613281-3.921875 7.914063-4.980469 11.832031-2.363281 22.574219 15.042969 45.230469 17.269531 78.226563 7.679688 29.40625-8.867188 61.273437-3.257813 85.878906 15.121093 28.160156 21.144531 44.304687 57.070313 44.304687 98.558594 0 51.074219-14.367187 63.320313-24.863281 72.261719-6.296875 3.835937-9.828125 10.945312-9.082031 18.277344.085938 8.65625 1.796875 17.21875 5.042969 25.242187 3.316406 5.714844 3.492187 12.730469.460937 18.601563-4.453125 6.332031-12.816406 7.355468-31.101562 7.355468zm0 0"/><path d="m379.617188 358.402344c-16.417969.023437-31.632813-8.605469-40.039063-22.707032-1.878906-3.109374-1.585937-7.070312.734375-9.867187 2.265625-2.605469 4.753906-5.007813 7.441406-7.175781 7.722656-6.605469 16.46875-14.078125 18.457032-45.628906.257812-4.082032 3.375-7.40625 7.433593-7.925782l.9375-.128906c1.667969-.261719 3.347657-.40625 5.035157-.433594 25.921874 0 46.933593 21.011719 46.933593 46.933594 0 25.917969-21.011719 46.933594-46.933593 46.933594zm-21.402344-26.25c5.566406 5.875 13.308594 9.195312 21.402344 9.183594 15.929687.019531 29.074218-12.464844 29.867187-28.378907.796875-15.910156-11.035156-29.640625-26.886719-31.210937-3.527344 32.597656-15.132812 42.511718-23.765625 49.878906-.207031.179688-.402343.324219-.617187.527344zm0 0"/><path d="m164.695312 100.199219c-2.738281-.003907-5.308593-1.320313-6.910156-3.539063-7.128906-9.457031-17.503906-15.945312-29.125-18.21875-2.574218-.582031-4.734375-2.324218-5.851562-4.714844-1.117188-2.394531-1.0625-5.167968.144531-7.515624 8.746094-17.015626 33.816406-36.199219 65.40625-50.066407 18.765625-8.613281 38.847656-14.003906 59.402344-15.945312 25.90625-1.632813 35.421875 7.132812 38.792969 14.796875 1.699218 4.078125 2.089843 8.585937 1.125 12.902344-.722657 3.65625-3.734376 6.417968-7.441407 6.824218-16.964843 2.289063-33.507812 7.042969-49.101562 14.113282-33.824219 14.839843-54.910157 34.007812-58.273438 45.226562-.929687 3.117188-3.546875 5.429688-6.75 5.976562-.464843.089844-.941406.144532-1.417969.160157zm-20.410156-34.695313c6.804688 2.738282 13.089844 6.621094 18.585938 11.476563 10.980468-15.28125 33.398437-31.472657 61.441406-43.765625 13.949219-6.214844 28.542969-10.863282 43.519531-13.859375-6.078125-2.214844-12.597656-2.941407-19.011719-2.125-18.558593 1.800781-36.683593 6.703125-53.617187 14.507812-19.070313 7.714844-36.386719 19.199219-50.917969 33.765625zm0 0"/><path d="m189.871094 119.621094c-7.101563.226562-14.175782-.988282-20.796875-3.574219-2.382813-1.050781-4.152344-3.132813-4.8125-5.648437-.761719-2.984376-1.851563-5.871094-3.25-8.613282-.96875-1.824218-2.074219-3.570312-3.304688-5.230468-1.570312-2.167969-2.035156-4.945313-1.253906-7.507813 5.605469-18.296875 32.222656-40.210937 67.824219-55.832031 18.765625-8.613282 38.84375-14.007813 59.398437-15.949219 25.996094-1.707031 35.421875 7.132813 38.792969 14.796875 10.121094 23.039062-26.214844 53.433594-67.328125 71.472656-20.484375 9.601563-42.667969 15.070313-65.269531 16.085938zm-10.460938-18.074219c12.660156 3.03125 38.816406-.449219 68.863282-13.652344 41.640624-18.277343 61.585937-42.101562 58.5625-48.988281-.851563-2.03125-6.664063-5.597656-22.074219-4.625-18.558594 1.804688-36.6875 6.707031-53.625 14.503906-30.515625 13.398438-50.730469 30.3125-56.882813 41.746094.699219 1.136719 1.332032 2.234375 1.894532 3.335938 1.28125 2.472656 2.371093 5.039062 3.261718 7.679687zm0 0"/><path d="m85.21875 136.535156c0 4.710938-3.820312 8.53125-8.535156 8.53125-4.710938 0-8.53125-3.820312-8.53125-8.53125 0-4.714844 3.820312-8.535156 8.53125-8.535156 4.714844 0 8.535156 3.820312 8.535156 8.535156zm0 0"/></svg>