<svg height="512" viewBox="0 0 46 58" width="512" xmlns="http://www.w3.org/2000/svg"><g id="028---Protected-Forest" fill="none" transform="translate(0 -1)"><path id="Shape" d="m44.12 7.27c-4.13-.23-14.04-1.25-19.86-5.83-.7372951-.5874422-1.7827049-.5874422-2.52 0-5.82 4.58-15.73 5.6-19.86 5.83-1.05793376.05399018-1.88618938.93070756-1.88 1.99v28.54c-.00149811 1.6475702.45181589 3.2635827 1.31 4.67 4.85877609 7.9407504 12.4742854 13.8117065 21.39 16.49.1964891.0529976.4035109.0529976.6 0 8.9157146-2.6782935 16.5312239-8.5492496 21.39-16.49.8581841-1.4064173 1.3114981-3.0224298 1.31-4.67v-28.54c.0061894-1.05929244-.8220662-1.93600982-1.88-1.99z" fill="#71c285"/><path id="Shape" d="m23 .9999975v58.0000025c-.1010686-.0034765-.2015513-.0168742-.3-.04-8.9157146-2.6782935-16.53122391-8.5492496-21.39-16.49-.85818411-1.4064173-1.31149811-3.0224298-1.31-4.67v-28.54c-.00618938-1.05929244.82206624-1.93600982 1.88-1.99 4.13-.23 14.04-1.25 19.86-5.83.357824-.28553823.8022123-.44072144 1.26-.4400025z" fill="#7ed09e"/><path id="Shape" d="m42 12.37.0000128 23.13h-38.00002557l.00001277-23.13c-.00258325-.5154781.38709871-.948458.9-1 5.11-.5 12.2-1.82 17.57-5.22.3250095-.20007743.7349905-.20007743 1.06 0 5.37 3.4 12.46 4.72 17.57 5.22.5129013.051542.9025832.4845219.9 1z" fill="#f9eab0"/><path id="Shape" d="m42 34c0 4.113.194 5.147-.73 6.63-4.1034781 6.7361716-10.4532478 11.807488-17.93 14.32-.2212602.0700132-.4587398.0700132-.68 0-7.4704783-2.5132493-13.8180223-7.5757077-17.93-14.3-.917-1.509-.73-2.35-.73-6.65z" fill="#24ae5f"/><path id="Rectangle-path" d="m13 27.5h4v6.5h-4z" fill="#a56a43"/><path id="Rectangle-path" d="m29 27.5h4v6.5h-4z" fill="#a56a43"/><path id="Shape" d="m19.293 48.707-3-3c-.3789722-.3923789-.3735524-1.0160848.0121814-1.4018186s1.0094397-.3911536 1.4018186-.0121814l2.293 2.293 8.293-8.293c.3923789-.3789722 1.0160848-.3735524 1.4018186.0121814s.3911536 1.0094397.0121814 1.4018186l-9 9c-.3904999.3903819-1.0235001.3903819-1.414 0z" fill="#fff"/><path id="Shape" d="m19.985 30h-9.97c-.38634884.0040255-.7404508-.2148758-.90955377-.5622744-.16910296-.3473987-.12294833-.7611326.11855377-1.0627256l2.432-3c.1937169-.2377709.4843065-.3755346.791-.375h5.106c.3066935-.0005346.5972831.1372291.791.375l2.432 3c.2415021.301593.2876567.7153269.1185538 1.0627256-.169103.3473986-.523205.5662999-.9095538.5622744z" fill="#4fba6f"/><path id="Shape" d="m18.982 25h-7.964c-.3867099.00481-.7415258-.2137945-.9111365-.5613574-.16961069-.3475628-.12360582-.7617678.1181365-1.0636426l2.438-3c.1946112-.2377375.4857665-.3754213.793-.375h3.088c.3072335-.0004213.5983888.1372625.793.375l2.438 3c.2417423.3018748.2877472.7160798.1181365 1.0636426-.1696107.3475629-.5244266.5661674-.9111365.5613574z" fill="#24ae5f"/><path id="Shape" d="m17.964 20h-5.928c-.41569-.0254406-.7822406-.2812277-.9495445-.6626131-.1673038-.3813853-.1072593-.8243087.1555445-1.1473869l2.963-3.79c.1891664-.2479146.4831578-.3933906.795-.3933906s.6058336.145476.795.3933906l2.963 3.793c.2610557.3231075.3200595.7648561.1529565 1.1451522-.1671029.380296-.5323966.6356074-.9469565.6618478z" fill="#4fba6f"/><path id="Shape" d="m35.985 30h-9.97c-.3863488.0040255-.7404508-.2148758-.9095538-.5622744-.1691029-.3473987-.1229483-.7611326.1185538-1.0627256l2.432-3c.1937169-.2377709.4843065-.3755346.791-.375h5.106c.3066935-.0005346.5972831.1372291.791.375l2.432 3c.2415021.301593.2876567.7153269.1185538 1.0627256-.169103.3473986-.523205.5662999-.9095538.5622744z" fill="#4fba6f"/><path id="Shape" d="m34.982 25h-7.964c-.3867099.00481-.7415258-.2137945-.9111365-.5613574-.1696107-.3475628-.1236058-.7617678.1181365-1.0636426l2.438-3c.1946112-.2377375.4857665-.3754213.793-.375h3.088c.3072335-.0004213.5983888.1372625.793.375l2.438 3c.2417423.3018748.2877472.7160798.1181365 1.0636426-.1696107.3475629-.5244266.5661674-.9111365.5613574z" fill="#24ae5f"/><path id="Shape" d="m33.964 20h-5.928c-.41569-.0254406-.7822406-.2812277-.9495445-.6626131-.1673038-.3813853-.1072593-.8243087.1555445-1.1473869l2.963-3.79c.1891664-.2479146.4831578-.3933906.795-.3933906s.6058336.145476.795.3933906l2.963 3.793c.2610557.3231075.3200595.7648561.1529565 1.1451522-.1671029.380296-.5323966.6356074-.9469565.6618478z" fill="#4fba6f"/></g></svg>